<?xml version="1.0" standalone="no"?>
<!DOCTYPE svg PUBLIC "-//W3C//DTD SVG 20010904//EN"
 "http://www.w3.org/TR/2001/REC-SVG-20010904/DTD/svg10.dtd">
<svg version="1.0" xmlns="http://www.w3.org/2000/svg"
 width="1194.000000pt" height="209.000000pt" viewBox="0 0 1194.000000 209.000000"
 preserveAspectRatio="xMidYMid meet">

<g transform="translate(0.000000,209.000000) scale(0.100000,-0.100000)"
fill="#000000" stroke="none">
<path d="M440 2031 c-131 -6 -136 -7 -180 -38 -63 -43 -104 -86 -137 -141
l-28 -47 -5 -555 c-4 -408 -2 -563 7 -585 42 -110 183 -115 255 -10 l23 35
5023 0 5022 0 9 -22 c12 -31 60 -74 96 -85 45 -14 93 5 148 59 l48 48 584 0
c570 0 585 0 585 19 0 17 -10 21 -67 27 -38 4 -303 4 -589 1 l-522 -6 -7 267
c-4 147 -8 321 -9 387 -1 146 13 345 27 363 7 9 105 12 428 12 406 0 420 -1
439 -20 19 -19 20 -33 20 -227 0 -147 -4 -215 -13 -233 -12 -25 -15 -25 -156
-30 l-143 -5 -39 -42 c-36 -39 -39 -47 -39 -99 0 -52 3 -59 39 -95 l39 -39
163 0 c160 0 166 1 224 29 61 28 130 93 159 149 25 49 38 148 43 332 5 208 -7
314 -45 384 -31 57 -90 112 -158 146 l-49 24 -480 1 c-477 0 -480 0 -525 -22
-60 -30 -142 -111 -171 -170 l-24 -48 -5 -528 -5 -527 -5027 -3 -5027 -2 -7
65 c-4 36 -5 260 -2 499 5 404 7 435 24 448 14 10 105 13 435 13 l418 0 15
-22 c13 -19 16 -58 16 -233 0 -115 -3 -220 -6 -232 -6 -22 -10 -23 -146 -23
-165 0 -184 -7 -225 -86 l-27 -51 18 -46 c10 -26 31 -58 47 -72 30 -24 34 -25
193 -25 l163 0 72 36 c55 28 80 47 109 87 72 99 74 109 73 412 -1 323 -4 337
-91 426 -99 101 -92 100 -513 103 -199 1 -423 0 -497 -3z"/>
<path d="M3905 2030 c-309 -6 -300 -4 -383 -76 -51 -44 -83 -91 -105 -158 -24
-69 -21 -124 9 -203 38 -101 38 -102 20 -122 -9 -9 -23 -48 -33 -85 -15 -62
-15 -73 0 -141 27 -128 98 -213 215 -258 37 -15 90 -17 400 -17 l358 0 31 33
c74 78 71 143 -12 216 l-36 31 -328 0 c-365 0 -355 -2 -349 67 l3 38 450 5
c476 6 476 6 556 56 193 121 216 394 44 537 -84 71 -104 75 -345 79 -118 2
-341 1 -495 -2z m659 -286 c19 -19 21 -54 3 -78 -12 -17 -39 -19 -318 -23
-167 -2 -360 -1 -429 4 l-125 8 -3 38 c-6 70 -26 67 439 67 366 0 420 -2 433
-16z"/>
<path d="M5333 2031 c-44 -6 -73 -16 -100 -36 -101 -75 -144 -132 -162 -213
-7 -33 -11 -172 -11 -373 0 -351 2 -363 59 -412 41 -34 88 -35 143 -5 68 39
68 39 68 403 0 312 1 326 20 345 19 19 33 20 236 20 129 0 223 -4 235 -10 18
-10 19 -23 19 -213 1 -228 15 -335 53 -400 111 -187 367 -224 518 -76 26 26
60 71 76 100 l28 54 5 265 5 265 27 9 c18 6 35 6 51 -1 23 -11 24 -16 31 -160
l6 -148 39 -37 c22 -21 51 -40 65 -44 39 -9 116 27 144 67 23 33 24 39 20 199
-3 141 -7 172 -25 211 -23 52 -70 102 -140 151 -45 31 -54 33 -147 36 -125 5
-167 -10 -246 -87 -102 -100 -104 -104 -108 -408 -5 -294 -4 -293 -70 -277
l-37 9 -6 255 c-6 263 -9 288 -54 365 -21 36 -88 91 -148 122 -39 20 -60 22
-287 27 -135 2 -273 1 -307 -3z"/>
<path d="M7385 2032 c-67 -8 -123 -41 -185 -109 -80 -88 -90 -131 -90 -409 0
-129 5 -245 12 -279 14 -72 77 -169 133 -206 90 -59 94 -59 484 -59 l359 0 35
39 c63 70 58 141 -14 205 l-39 36 -324 0 c-178 0 -331 3 -340 6 -14 5 -16 37
-16 249 0 212 2 244 16 249 9 3 202 6 429 6 363 0 416 -2 429 -16 13 -12 16
-41 16 -147 0 -113 3 -137 20 -164 19 -32 84 -73 115 -73 28 0 92 38 120 72
l27 32 -4 166 c-3 160 -4 168 -33 224 -32 63 -100 125 -175 159 -42 19 -69 20
-480 23 -239 1 -462 -1 -495 -4z"/>
<path d="M9065 2031 c-61 -5 -90 -13 -120 -33 -52 -33 -117 -104 -147 -160
-23 -42 -23 -49 -23 -333 0 -285 0 -291 24 -338 40 -81 103 -141 176 -171 l65
-26 357 0 356 0 37 39 c21 21 40 51 44 65 11 45 -11 101 -54 140 l-40 36 -329
0 c-277 0 -332 2 -344 15 -18 17 -31 205 -26 363 3 89 7 106 23 118 16 12 93
14 436 14 391 0 418 -1 433 -18 14 -15 17 -42 17 -153 0 -151 4 -162 71 -204
52 -33 74 -31 139 13 69 47 74 65 67 253 -6 170 -17 200 -104 287 -98 98 -86
96 -563 98 -228 1 -451 -1 -495 -5z"/>
<path d="M1929 2001 c-60 -39 -115 -96 -150 -156 l-29 -50 0 -374 0 -373 39
-39 c33 -33 45 -39 82 -39 53 0 102 27 129 72 19 31 20 51 20 354 0 292 2 324
18 343 17 20 26 21 355 23 l338 3 40 42 c58 63 54 118 -14 191 l-31 32 -376 0
-376 0 -45 -29z"/>
<path d="M2989 2014 c-56 -36 -76 -130 -39 -188 26 -43 63 -61 121 -61 43 0
53 5 86 38 35 35 38 41 38 97 0 54 -3 63 -32 92 -27 27 -41 32 -90 35 -42 3
-65 -1 -84 -13z"/>
<path d="M540 1224 c-46 -39 -63 -79 -57 -133 4 -37 13 -52 46 -83 36 -34 46
-38 92 -38 48 0 55 3 95 44 40 39 44 48 44 91 0 88 -56 145 -144 145 -33 0
-52 -6 -76 -26z"/>
<path d="M4640 1224 c-37 -31 -60 -73 -60 -109 0 -35 34 -99 66 -124 29 -23
94 -28 138 -11 27 10 71 72 82 114 9 36 -31 113 -70 137 -47 29 -117 25 -156
-7z"/>
<path d="M6681 1210 c-37 -36 -41 -44 -41 -90 0 -92 50 -150 127 -150 61 0 97
22 122 73 52 107 -4 207 -117 207 -44 0 -54 -4 -91 -40z"/>
<path d="M8350 1224 c-36 -31 -60 -73 -60 -107 0 -57 50 -132 96 -143 40 -10
113 2 136 22 46 41 60 120 33 177 -36 76 -143 102 -205 51z"/>
<path d="M10014 1231 c-42 -25 -68 -82 -62 -136 9 -77 64 -125 142 -125 83 0
147 86 130 175 -4 22 -20 47 -45 70 -33 30 -46 35 -87 35 -28 0 -59 -7 -78
-19z"/>
<path d="M10887 1235 c-68 -50 -85 -128 -44 -200 30 -52 59 -67 127 -62 49 4
58 8 92 47 42 48 50 97 23 149 -27 54 -71 81 -128 81 -29 0 -60 -7 -70 -15z"/>
<path d="M264 421 c-32 -15 -44 -26 -49 -50 -15 -70 18 -119 96 -143 56 -16
68 -34 41 -61 -20 -19 -26 -20 -71 -11 -41 8 -51 8 -56 -4 -12 -32 -5 -52 23
-58 15 -3 34 -8 44 -10 28 -8 108 18 123 39 23 33 19 102 -7 127 -12 11 -28
20 -35 20 -7 0 -31 7 -53 16 -35 14 -41 21 -38 42 4 37 29 48 76 36 50 -13 62
-8 62 25 0 51 -79 67 -156 32z"/>
<path d="M3094 421 c-64 -39 -92 -113 -79 -205 25 -166 249 -169 284 -4 21 95
-16 183 -89 212 -52 21 -78 20 -116 -3z m110 -82 c34 -40 41 -72 27 -120 -12
-40 -43 -69 -74 -69 -10 0 -32 13 -48 29 -25 25 -29 37 -29 84 0 97 70 140
124 76z"/>
<path d="M5145 409 c-50 -44 -65 -78 -65 -149 0 -67 14 -102 55 -140 23 -21
36 -25 90 -25 54 0 67 4 90 25 41 39 55 73 55 141 0 81 -27 131 -87 159 -61
29 -96 26 -138 -11z m122 -61 c47 -53 54 -94 23 -145 -27 -44 -54 -58 -90 -43
-45 19 -67 78 -50 139 18 68 77 92 117 49z"/>
<path d="M5899 417 c-19 -12 -44 -42 -57 -67 -44 -84 -10 -215 64 -249 34 -15
99 -14 132 3 64 33 96 127 73 213 -16 60 -52 98 -105 112 -61 15 -68 14 -107
-12z m116 -71 c28 -22 30 -29 30 -86 0 -55 -3 -64 -28 -86 -35 -30 -59 -30
-93 -1 -24 21 -27 31 -27 87 0 56 3 66 27 87 34 29 53 29 91 -1z"/>
<path d="M7552 424 c-44 -19 -65 -67 -51 -117 11 -42 34 -60 101 -83 34 -11
48 -21 48 -34 0 -28 -26 -43 -63 -36 -73 13 -72 14 -72 -24 0 -34 1 -35 45
-42 92 -13 160 28 160 97 0 38 -33 85 -61 85 -11 0 -36 7 -55 15 -30 12 -35
19 -32 41 4 38 30 52 70 36 27 -10 35 -9 50 5 26 23 22 40 -12 58 -36 18 -84
18 -128 -1z"/>
<path d="M8226 408 c-47 -39 -66 -81 -66 -150 0 -69 30 -131 74 -152 86 -41
212 4 166 59 -9 11 -17 11 -50 -2 -21 -9 -49 -13 -62 -10 -59 15 -80 140 -32
192 26 28 34 28 101 9 15 -4 24 0 33 15 14 27 7 38 -37 56 -54 23 -84 18 -127
-17z"/>
<path d="M8660 418 c-58 -40 -80 -82 -80 -155 0 -70 13 -104 55 -143 23 -21
36 -25 90 -25 54 0 67 4 90 25 46 43 57 76 53 151 -3 49 -9 76 -24 96 -52 70
-126 90 -184 51z m103 -69 c15 -11 31 -38 37 -60 15 -56 -14 -124 -58 -134
-40 -8 -66 6 -86 49 -26 54 -18 104 24 146 25 25 50 25 83 -1z"/>
<path d="M9580 429 c-39 -16 -59 -39 -66 -76 -10 -53 12 -92 63 -114 25 -10
50 -19 58 -19 19 0 36 -25 29 -44 -9 -22 -50 -31 -91 -18 -31 10 -35 8 -45
-13 -6 -13 -8 -30 -5 -38 8 -20 92 -29 139 -15 52 15 70 44 66 104 -3 53 -8
57 -100 89 -53 18 -66 40 -42 66 18 20 54 23 89 10 43 -18 62 36 23 63 -25 18
-80 20 -118 5z"/>
<path d="M11593 424 c-39 -17 -53 -41 -53 -91 0 -47 19 -77 60 -92 16 -6 44
-16 60 -22 22 -8 30 -18 30 -35 0 -30 -35 -40 -91 -26 -44 11 -53 4 -47 -39 2
-19 12 -25 45 -32 90 -17 163 29 163 102 0 39 -29 81 -55 81 -27 0 -93 32 -99
47 -15 38 47 65 99 44 24 -10 45 4 45 30 0 44 -89 63 -157 33z"/>
<path d="M610 260 l0 -170 100 1 100 1 0 29 c0 28 -1 28 -67 31 l-68 3 -3 43
-3 42 70 0 71 0 0 30 0 30 -70 0 -70 0 0 30 0 30 70 0 70 0 0 35 0 35 -100 0
-100 0 0 -170z"/>
<path d="M1012 289 l3 -141 34 -30 c31 -28 38 -30 93 -26 47 4 64 10 86 31 26
27 27 31 30 167 l4 140 -30 0 -29 0 -5 -127 c-4 -107 -8 -128 -23 -140 -27
-19 -62 -16 -85 7 -18 18 -20 33 -20 140 l0 120 -31 0 -31 0 4 -141z"/>
<path d="M1755 368 c-3 -35 -5 -110 -3 -168 l3 -105 38 -3 39 -3 -3 85 c-2 47
1 87 6 88 5 2 20 -17 35 -42 36 -62 66 -65 100 -10 38 62 50 53 50 -40 0 -84
1 -86 48 -74 22 6 22 9 22 170 l0 164 -34 0 c-33 0 -37 -4 -78 -77 -24 -42
-47 -78 -53 -80 -5 -1 -29 32 -51 75 -39 72 -44 77 -77 80 l-35 3 -7 -63z"/>
<path d="M2382 418 c-7 -7 -12 -19 -12 -28 0 -17 -50 -162 -75 -215 -7 -16
-15 -41 -17 -55 -2 -21 2 -26 24 -28 23 -3 30 3 48 38 l21 41 56 -3 c53 -3 57
-5 66 -33 12 -35 23 -45 55 -45 28 0 28 12 -4 96 -14 38 -34 95 -44 126 -31
94 -47 118 -78 118 -16 0 -33 -5 -40 -12z m54 -144 c14 -21 15 -27 4 -34 -20
-12 -40 0 -40 24 0 20 7 36 16 36 2 0 11 -12 20 -26z"/>
<path d="M2752 263 l3 -168 33 -3 32 -3 -1 170 0 171 -35 0 -34 0 2 -167z"/>
<path d="M3502 263 l3 -168 33 -3 32 -3 0 60 c0 34 3 61 6 61 18 0 47 -26 74
-65 33 -48 61 -61 99 -47 l23 8 -32 34 c-46 49 -52 71 -29 106 24 37 25 111 1
140 -28 35 -56 44 -137 44 l-75 0 2 -167z m153 53 c0 -35 -3 -40 -28 -47 -45
-12 -57 -2 -57 48 l0 44 43 -3 c42 -3 42 -3 42 -42z"/>
<path d="M4300 410 c-6 -11 -20 -46 -30 -78 -10 -31 -28 -82 -40 -112 -44
-113 -44 -112 -29 -121 31 -19 64 2 75 47 6 22 11 24 64 24 56 0 57 -1 66 -32
7 -22 19 -36 37 -42 50 -18 50 2 2 140 -68 191 -69 194 -104 194 -20 0 -34 -7
-41 -20z m60 -144 c0 -26 -19 -39 -39 -26 -19 11 -4 50 20 50 13 0 19 -7 19
-24z"/>
<path d="M4670 261 c0 -171 0 -171 23 -171 39 0 49 14 45 60 l-3 43 65 13 c82
17 100 37 100 110 0 41 -5 59 -24 80 -21 26 -30 28 -115 32 l-91 4 0 -171z
m154 83 c19 -19 20 -35 3 -58 -13 -17 -65 -25 -86 -12 -12 8 -15 45 -5 70 8
21 67 21 88 0z"/>
<path d="M5570 260 l0 -170 30 0 30 0 0 170 0 170 -30 0 -30 0 0 -170z"/>
<path d="M6602 263 l3 -168 28 -3 27 -3 0 90 c0 50 4 91 8 91 14 0 36 -30 81
-107 41 -71 43 -73 81 -73 l40 0 0 170 0 170 -35 0 -35 0 0 -97 c0 -96 0 -97
-19 -78 -11 11 -39 54 -64 95 -40 70 -46 75 -80 78 l-37 3 2 -168z"/>
<path d="M7156 406 c-9 -14 -16 -30 -16 -35 0 -5 -20 -64 -45 -130 -52 -138
-54 -151 -22 -151 32 0 47 13 56 46 7 27 11 29 64 32 l56 3 18 -38 c12 -26 26
-39 42 -41 40 -6 44 11 17 79 -13 35 -40 107 -59 159 -32 89 -37 95 -64 98
-23 2 -34 -3 -47 -22z m64 -140 c0 -25 -15 -37 -37 -28 -16 5 -17 24 -1 40 20
20 38 14 38 -12z"/>
<path d="M9062 263 l3 -168 33 -3 32 -3 0 91 c0 68 3 91 12 88 7 -3 35 -42 63
-89 50 -82 52 -84 93 -87 l42 -3 0 170 0 171 -35 0 c-21 0 -35 -5 -36 -12 0
-7 0 -50 1 -95 1 -49 -3 -83 -9 -83 -13 0 -42 42 -74 106 -35 69 -52 84 -93
84 l-34 0 2 -167z"/>
<path d="M9902 303 c4 -174 29 -214 131 -213 51 1 82 17 108 56 16 25 19 47
19 157 l0 128 -32 -3 -33 -3 4 -117 c3 -107 1 -118 -18 -137 -21 -21 -56 -27
-78 -13 -23 15 -33 65 -33 168 l0 104 -36 0 -36 0 4 -127z"/>
<path d="M10370 260 l0 -170 90 0 90 0 0 30 c0 26 -3 30 -29 30 -16 0 -43 3
-60 6 l-31 7 0 133 0 134 -30 0 -30 0 0 -170z"/>
<path d="M10700 396 c0 -34 1 -35 43 -38 l42 -3 3 -133 3 -133 32 3 32 3 0
130 0 130 43 3 c41 3 42 4 42 38 l0 34 -120 0 -120 0 0 -34z"/>
<path d="M11177 353 c-14 -43 -40 -116 -57 -162 -16 -46 -30 -87 -30 -92 0 -5
13 -9 30 -9 25 0 33 6 47 37 17 35 21 38 66 41 55 4 74 -8 79 -46 3 -23 8 -27
42 -30 47 -4 48 -17 -26 190 l-53 148 -36 0 c-35 0 -35 0 -62 -77z m81 -77 c6
-27 -6 -46 -23 -40 -15 6 -21 45 -8 58 11 10 28 1 31 -18z"/>
</g>
</svg>
