<?xml version="1.0" encoding="UTF-8" standalone="no" ?>
<!DOCTYPE svg PUBLIC "-//W3C//DTD SVG 1.1//EN" "http://www.w3.org/Graphics/SVG/1.1/DTD/svg11.dtd">
<svg xmlns="http://www.w3.org/2000/svg" xmlns:xlink="http://www.w3.org/1999/xlink" version="1.1" width="1080" height="1080" viewBox="0 0 1080 1080" xml:space="preserve">
<desc>Created with Fabric.js 5.2.4</desc>
<defs>
</defs>
<rect x="0" y="0" width="100%" height="100%" fill="transparent"></rect>
<g transform="matrix(1 0 0 1 540 540)" id="93cf7312-a503-45aa-a0ce-1c392be21845"  >
<rect style="stroke: none; stroke-width: 1; stroke-dasharray: none; stroke-linecap: butt; stroke-dashoffset: 0; stroke-linejoin: miter; stroke-miterlimit: 4; fill: rgb(0,35,238); fill-rule: nonzero; opacity: 1; visibility: hidden;" vector-effect="non-scaling-stroke"  x="-540" y="-540" rx="0" ry="0" width="1080" height="1080" />
</g>
<g transform="matrix(1 0 0 1 540 540)" id="edec48c4-7716-4dbe-8c4f-ae6736540d7b"  >
</g>
<g transform="matrix(0.66 0 0 0.82 540 515.58)"  >
<g style="opacity: 1;" vector-effect="non-scaling-stroke"   >
		<g transform="matrix(0.13 0 0 -0.13 0 -32.99)"  >
<path style="stroke: none; stroke-width: 1; stroke-dasharray: none; stroke-linecap: butt; stroke-dashoffset: 0; stroke-linejoin: miter; stroke-miterlimit: 4; fill: rgb(255,255,255); fill-rule: nonzero; opacity: 1;" vector-effect="non-scaling-stroke"  transform=" translate(-5989.02, -1306.78)" d="M 440 2031 C 309 2025 304 2024 260 1993 C 197 1950 156 1907 123 1852 L 95 1805 L 90 1250 C 86 842 88 687 97 665 C 139 555 280 550 352 655 L 375 690 L 5398 690 L 10420 690 L 10429 668 C 10441 637 10489 594 10525 583 C 10570 569 10618 588 10673 642 L 10721 690 L 11305 690 C 11875 690 11890 690 11890 709 C 11890 726 11880 730 11823 736 C 11785 740 11520 740 11234 737 L 10712 731 L 10705 998 C 10701 1145 10697 1319 10696 1385 C 10695 1531 10709 1730 10723 1748 C 10730 1757 10828 1760 11151 1760 C 11557 1760 11571 1759 11590 1740 C 11609 1721 11610 1707 11610 1513 C 11610 1366 11606 1298 11597 1280 C 11585 1255 11582 1255 11441 1250 L 11298 1245 L 11259 1203 C 11223 1164 11220 1156 11220 1104 C 11220 1052 11223 1045 11259 1009 L 11298 970 L 11461 970 C 11621 970 11627 971 11685 999 C 11746 1027 11815 1092 11844 1148 C 11869 1197 11882 1296 11887 1480 C 11892 1688 11880 1794 11842 1864 C 11811 1921 11752 1976 11684 2010 L 11635 2034 L 11155 2035 C 10678 2035 10675 2035 10630 2013 C 10570 1983 10488 1902 10459 1843 L 10435 1795 L 10430 1267 L 10425 740 L 5398 737 L 371 735 L 364 800 C 360 836 359 1060 362 1299 C 367 1703 369 1734 386 1747 C 400 1757 491 1760 821 1760 L 1239 1760 L 1254 1738 C 1267 1719 1270 1680 1270 1505 C 1270 1390 1267 1285 1264 1273 C 1258 1251 1254 1250 1118 1250 C 953 1250 934 1243 893 1164 L 866 1113 L 884 1067 C 894 1041 915 1009 931 995 C 961 971 965 970 1124 970 L 1287 970 L 1359 1006 C 1414 1034 1439 1053 1468 1093 C 1540 1192 1542 1202 1541 1505 C 1540 1828 1537 1842 1450 1931 C 1351 2032 1358 2031 937 2034 C 738 2035 514 2034 440 2031 z" stroke-linecap="round" />
</g>
		<g transform="matrix(0.13 0 0 -0.13 -247.73 -58.95)"  >
<path style="stroke: none; stroke-width: 1; stroke-dasharray: none; stroke-linecap: butt; stroke-dashoffset: 0; stroke-linejoin: miter; stroke-miterlimit: 4; fill: rgb(255,255,255); fill-rule: nonzero; opacity: 1;" vector-effect="non-scaling-stroke"  transform=" translate(-4131.01, -1501.52)" d="M 3905 2030 C 3596 2024 3605 2026 3522 1954 C 3471 1910 3439 1863 3417 1796 C 3393 1727 3396 1672 3426 1593 C 3464 1492 3464 1491 3446 1471 C 3437 1462 3423 1423 3413 1386 C 3398 1324 3398 1313 3413 1245 C 3440 1117 3511 1032 3628 987 C 3665 972 3718 970 4028 970 L 4386 970 L 4417 1003 C 4491 1081 4488 1146 4405 1219 L 4369 1250 L 4041 1250 C 3676 1250 3686 1248 3692 1317 L 3695 1355 L 4145 1360 C 4621 1366 4621 1366 4701 1416 C 4894 1537 4917 1810 4745 1953 C 4661 2024 4641 2028 4400 2032 C 4282 2034 4059 2033 3905 2030 z M 4564 1744 C 4583 1725 4585 1690 4567 1666 C 4555 1649 4528 1647 4249 1643 C 4082 1641 3889 1642 3820 1647 L 3695 1655 L 3692 1693 C 3686 1763 3666 1760 4131 1760 C 4497 1760 4551 1758 4564 1744 z" stroke-linecap="round" />
</g>
		<g transform="matrix(0.13 0 0 -0.13 -0.55 -59.07)"  >
<path style="stroke: none; stroke-width: 1; stroke-dasharray: none; stroke-linecap: butt; stroke-dashoffset: 0; stroke-linejoin: miter; stroke-miterlimit: 4; fill: rgb(255,255,255); fill-rule: nonzero; opacity: 1;" vector-effect="non-scaling-stroke"  transform=" translate(-5984.91, -1502.41)" d="M 5333 2031 C 5289 2025 5260 2015 5233 1995 C 5132 1920 5089 1863 5071 1782 C 5064 1749 5060 1610 5060 1409 C 5060 1058 5062 1046 5119 997 C 5160 963 5207 962 5262 992 C 5330 1031 5330 1031 5330 1395 C 5330 1707 5331 1721 5350 1740 C 5369 1759 5383 1760 5586 1760 C 5715 1760 5809 1756 5821 1750 C 5839 1740 5840 1727 5840 1537 C 5841 1309 5855 1202 5893 1137 C 6004 950 6260 913 6411 1061 C 6437 1087 6471 1132 6487 1161 L 6515 1215 L 6520 1480 L 6525 1745 L 6552 1754 C 6570 1760 6587 1760 6603 1753 C 6626 1742 6627 1737 6634 1593 L 6640 1445 L 6679 1408 C 6701 1387 6730 1368 6744 1364 C 6783 1355 6860 1391 6888 1431 C 6911 1464 6912 1470 6908 1630 C 6905 1771 6901 1802 6883 1841 C 6860 1893 6813 1943 6743 1992 C 6698 2023 6689 2025 6596 2028 C 6471 2033 6429 2018 6350 1941 C 6248 1841 6246 1837 6242 1533 C 6237 1239 6238 1240 6172 1256 L 6135 1265 L 6129 1520 C 6123 1783 6120 1808 6075 1885 C 6054 1921 5987 1976 5927 2007 C 5888 2027 5867 2029 5640 2034 C 5505 2036 5367 2035 5333 2031 z" stroke-linecap="round" />
</g>
		<g transform="matrix(0.13 0 0 -0.13 246.93 -59.17)"  >
<path style="stroke: none; stroke-width: 1; stroke-dasharray: none; stroke-linecap: butt; stroke-dashoffset: 0; stroke-linejoin: miter; stroke-miterlimit: 4; fill: rgb(255,255,255); fill-rule: nonzero; opacity: 1;" vector-effect="non-scaling-stroke"  transform=" translate(-7841, -1503.13)" d="M 7385 2032 C 7318 2024 7262 1991 7200 1923 C 7120 1835 7110 1792 7110 1514 C 7110 1385 7115 1269 7122 1235 C 7136 1163 7199 1066 7255 1029 C 7345 970 7349 970 7739 970 L 8098 970 L 8133 1009 C 8196 1079 8191 1150 8119 1214 L 8080 1250 L 7756 1250 C 7578 1250 7425 1253 7416 1256 C 7402 1261 7400 1293 7400 1505 C 7400 1717 7402 1749 7416 1754 C 7425 1757 7618 1760 7845 1760 C 8208 1760 8261 1758 8274 1744 C 8287 1732 8290 1703 8290 1597 C 8290 1484 8293 1460 8310 1433 C 8329 1401 8394 1360 8425 1360 C 8453 1360 8517 1398 8545 1432 L 8572 1464 L 8568 1630 C 8565 1790 8564 1798 8535 1854 C 8503 1917 8435 1979 8360 2013 C 8318 2032 8291 2033 7880 2036 C 7641 2037 7418 2035 7385 2032 z" stroke-linecap="round" />
</g>
		<g transform="matrix(0.13 0 0 -0.13 468.42 -59.17)"  >
<path style="stroke: none; stroke-width: 1; stroke-dasharray: none; stroke-linecap: butt; stroke-dashoffset: 0; stroke-linejoin: miter; stroke-miterlimit: 4; fill: rgb(255,255,255); fill-rule: nonzero; opacity: 1;" vector-effect="non-scaling-stroke"  transform=" translate(-9502.17, -1503.13)" d="M 9065 2031 C 9004 2026 8975 2018 8945 1998 C 8893 1965 8828 1894 8798 1838 C 8775 1796 8775 1789 8775 1505 C 8775 1220 8775 1214 8799 1167 C 8839 1086 8902 1026 8975 996 L 9040 970 L 9397 970 L 9753 970 L 9790 1009 C 9811 1030 9830 1060 9834 1074 C 9845 1119 9823 1175 9780 1214 L 9740 1250 L 9411 1250 C 9134 1250 9079 1252 9067 1265 C 9049 1282 9036 1470 9041 1628 C 9044 1717 9048 1734 9064 1746 C 9080 1758 9157 1760 9500 1760 C 9891 1760 9918 1759 9933 1742 C 9947 1727 9950 1700 9950 1589 C 9950 1438 9954 1427 10021 1385 C 10073 1352 10095 1354 10160 1398 C 10229 1445 10234 1463 10227 1651 C 10221 1821 10210 1851 10123 1938 C 10025 2036 10037 2034 9560 2036 C 9332 2037 9109 2035 9065 2031 z" stroke-linecap="round" />
</g>
		<g transform="matrix(0.13 0 0 -0.13 -494.44 -58.75)"  >
<path style="stroke: none; stroke-width: 1; stroke-dasharray: none; stroke-linecap: butt; stroke-dashoffset: 0; stroke-linejoin: miter; stroke-miterlimit: 4; fill: rgb(255,255,255); fill-rule: nonzero; opacity: 1;" vector-effect="non-scaling-stroke"  transform=" translate(-2280.75, -1500)" d="M 1929 2001 C 1869 1962 1814 1905 1779 1845 L 1750 1795 L 1750 1421 L 1750 1048 L 1789 1009 C 1822 976 1834 970 1871 970 C 1924 970 1973 997 2000 1042 C 2019 1073 2020 1093 2020 1396 C 2020 1688 2022 1720 2038 1739 C 2055 1759 2064 1760 2393 1762 L 2731 1765 L 2771 1807 C 2829 1870 2825 1925 2757 1998 L 2726 2030 L 2350 2030 L 1974 2030 L 1929 2001 z" stroke-linecap="round" />
</g>
		<g transform="matrix(0.13 0 0 -0.13 -390.12 -111.61)"  >
<path style="stroke: none; stroke-width: 1; stroke-dasharray: none; stroke-linecap: butt; stroke-dashoffset: 0; stroke-linejoin: miter; stroke-miterlimit: 4; fill: rgb(255,255,255); fill-rule: nonzero; opacity: 1;" vector-effect="non-scaling-stroke"  transform=" translate(-3063.1, -1896.48)" d="M 2989 2014 C 2933 1978 2913 1884 2950 1826 C 2976 1783 3013 1765 3071 1765 C 3114 1765 3124 1770 3157 1803 C 3192 1838 3195 1844 3195 1900 C 3195 1954 3192 1963 3163 1992 C 3136 2019 3122 2024 3073 2027 C 3031 2030 3008 2026 2989 2014 z" stroke-linecap="round" />
</g>
		<g transform="matrix(0.13 0 0 -0.13 -715.75 -6.75)"  >
<path style="stroke: none; stroke-width: 1; stroke-dasharray: none; stroke-linecap: butt; stroke-dashoffset: 0; stroke-linejoin: miter; stroke-miterlimit: 4; fill: rgb(255,255,255); fill-rule: nonzero; opacity: 1;" vector-effect="non-scaling-stroke"  transform=" translate(-620.92, -1110)" d="M 540 1224 C 494 1185 477 1145 483 1091 C 487 1054 496 1039 529 1008 C 565 974 575 970 621 970 C 669 970 676 973 716 1014 C 756 1053 760 1062 760 1105 C 760 1193 704 1250 616 1250 C 583 1250 564 1244 540 1224 z" stroke-linecap="round" />
</g>
		<g transform="matrix(0.13 0 0 -0.13 -168.72 -6.78)"  >
<path style="stroke: none; stroke-width: 1; stroke-dasharray: none; stroke-linecap: butt; stroke-dashoffset: 0; stroke-linejoin: miter; stroke-miterlimit: 4; fill: rgb(255,255,255); fill-rule: nonzero; opacity: 1;" vector-effect="non-scaling-stroke"  transform=" translate(-4723.64, -1110.23)" d="M 4640 1224 C 4603 1193 4580 1151 4580 1115 C 4580 1080 4614 1016 4646 991 C 4675 968 4740 963 4784 980 C 4811 990 4855 1052 4866 1094 C 4875 1130 4835 1207 4796 1231 C 4749 1260 4679 1256 4640 1224 z" stroke-linecap="round" />
</g>
		<g transform="matrix(0.13 0 0 -0.13 104.7 -6.75)"  >
<path style="stroke: none; stroke-width: 1; stroke-dasharray: none; stroke-linecap: butt; stroke-dashoffset: 0; stroke-linejoin: miter; stroke-miterlimit: 4; fill: rgb(255,255,255); fill-rule: nonzero; opacity: 1;" vector-effect="non-scaling-stroke"  transform=" translate(-6774.28, -1110)" d="M 6681 1210 C 6644 1174 6640 1166 6640 1120 C 6640 1028 6690 970 6767 970 C 6828 970 6864 992 6889 1043 C 6941 1150 6885 1250 6772 1250 C 6728 1250 6718 1246 6681 1210 z" stroke-linecap="round" />
</g>
		<g transform="matrix(0.13 0 0 -0.13 325.38 -6.8)"  >
<path style="stroke: none; stroke-width: 1; stroke-dasharray: none; stroke-linecap: butt; stroke-dashoffset: 0; stroke-linejoin: miter; stroke-miterlimit: 4; fill: rgb(255,255,255); fill-rule: nonzero; opacity: 1;" vector-effect="non-scaling-stroke"  transform=" translate(-8429.34, -1110.41)" d="M 8350 1224 C 8314 1193 8290 1151 8290 1117 C 8290 1060 8340 985 8386 974 C 8426 964 8499 976 8522 996 C 8568 1037 8582 1116 8555 1173 C 8519 1249 8412 1275 8350 1224 z" stroke-linecap="round" />
</g>
		<g transform="matrix(0.13 0 0 -0.13 546.66 -6.75)"  >
<path style="stroke: none; stroke-width: 1; stroke-dasharray: none; stroke-linecap: butt; stroke-dashoffset: 0; stroke-linejoin: miter; stroke-miterlimit: 4; fill: rgb(255,255,255); fill-rule: nonzero; opacity: 1;" vector-effect="non-scaling-stroke"  transform=" translate(-10088.95, -1110)" d="M 10014 1231 C 9972 1206 9946 1149 9952 1095 C 9961 1018 10016 970 10094 970 C 10177 970 10241 1056 10224 1145 C 10220 1167 10204 1192 10179 1215 C 10146 1245 10133 1250 10092 1250 C 10064 1250 10033 1243 10014 1231 z" stroke-linecap="round" />
</g>
		<g transform="matrix(0.13 0 0 -0.13 662.91 -6.89)"  >
<path style="stroke: none; stroke-width: 1; stroke-dasharray: none; stroke-linecap: butt; stroke-dashoffset: 0; stroke-linejoin: miter; stroke-miterlimit: 4; fill: rgb(255,255,255); fill-rule: nonzero; opacity: 1;" vector-effect="non-scaling-stroke"  transform=" translate(-10960.81, -1111.05)" d="M 10887 1235 C 10819 1185 10802 1107 10843 1035 C 10873 983 10902 968 10970 973 C 11019 977 11028 981 11062 1020 C 11104 1068 11112 1117 11085 1169 C 11058 1223 11014 1250 10957 1250 C 10928 1250 10897 1243 10887 1235 z" stroke-linecap="round" />
</g>
		<g transform="matrix(0.13 0 0 -0.13 -755.76 106.44)"  >
<path style="stroke: none; stroke-width: 1; stroke-dasharray: none; stroke-linecap: butt; stroke-dashoffset: 0; stroke-linejoin: miter; stroke-miterlimit: 4; fill: rgb(255,255,255); fill-rule: nonzero; opacity: 1;" vector-effect="non-scaling-stroke"  transform=" translate(-320.79, -261.12)" d="M 264 421 C 232 406 220 395 215 371 C 200 301 233 252 311 228 C 367 212 379 194 352 167 C 332 148 326 147 281 156 C 240 164 230 164 225 152 C 213 120 220 100 248 94 C 263 91 282 86 292 84 C 320 76 400 102 415 123 C 438 156 434 225 408 250 C 396 261 380 270 373 270 C 366 270 342 277 320 286 C 285 300 279 307 282 328 C 286 365 311 376 358 364 C 408 351 420 356 420 389 C 420 440 341 456 264 421 z" stroke-linecap="round" />
</g>
		<g transform="matrix(0.13 0 0 -0.13 -377.42 105.99)"  >
<path style="stroke: none; stroke-width: 1; stroke-dasharray: none; stroke-linecap: butt; stroke-dashoffset: 0; stroke-linejoin: miter; stroke-miterlimit: 4; fill: rgb(255,255,255); fill-rule: nonzero; opacity: 1;" vector-effect="non-scaling-stroke"  transform=" translate(-3158.36, -264.45)" d="M 3094 421 C 3030 382 3002 308 3015 216 C 3040 50 3264 47 3299 212 C 3320 307 3283 395 3210 424 C 3158 445 3132 444 3094 421 z M 3204 339 C 3238 299 3245 267 3231 219 C 3219 179 3188 150 3157 150 C 3147 150 3125 163 3109 179 C 3084 204 3080 216 3080 263 C 3080 360 3150 403 3204 339 z" stroke-linecap="round" />
</g>
		<g transform="matrix(0.13 0 0 -0.13 -101.87 105.62)"  >
<path style="stroke: none; stroke-width: 1; stroke-dasharray: none; stroke-linecap: butt; stroke-dashoffset: 0; stroke-linejoin: miter; stroke-miterlimit: 4; fill: rgb(255,255,255); fill-rule: nonzero; opacity: 1;" vector-effect="non-scaling-stroke"  transform=" translate(-5225, -267.26)" d="M 5145 409 C 5095 365 5080 331 5080 260 C 5080 193 5094 158 5135 120 C 5158 99 5171 95 5225 95 C 5279 95 5292 99 5315 120 C 5356 159 5370 193 5370 261 C 5370 342 5343 392 5283 420 C 5222 449 5187 446 5145 409 z M 5267 348 C 5314 295 5321 254 5290 203 C 5263 159 5236 145 5200 160 C 5155 179 5133 238 5150 299 C 5168 367 5227 391 5267 348 z" stroke-linecap="round" />
</g>
		<g transform="matrix(0.13 0 0 -0.13 -2.48 105.97)"  >
<path style="stroke: none; stroke-width: 1; stroke-dasharray: none; stroke-linecap: butt; stroke-dashoffset: 0; stroke-linejoin: miter; stroke-miterlimit: 4; fill: rgb(255,255,255); fill-rule: nonzero; opacity: 1;" vector-effect="non-scaling-stroke"  transform=" translate(-5970.43, -264.61)" d="M 5899 417 C 5880 405 5855 375 5842 350 C 5798 266 5832 135 5906 101 C 5940 86 6005 87 6038 104 C 6102 137 6134 231 6111 317 C 6095 377 6059 415 6006 429 C 5945 444 5938 443 5899 417 z M 6015 346 C 6043 324 6045 317 6045 260 C 6045 205 6042 196 6017 174 C 5982 144 5958 144 5924 173 C 5900 194 5897 204 5897 260 C 5897 316 5900 326 5924 347 C 5958 376 5977 376 6015 346 z" stroke-linecap="round" />
</g>
		<g transform="matrix(0.13 0 0 -0.13 215.91 106.32)"  >
<path style="stroke: none; stroke-width: 1; stroke-dasharray: none; stroke-linecap: butt; stroke-dashoffset: 0; stroke-linejoin: miter; stroke-miterlimit: 4; fill: rgb(255,255,255); fill-rule: nonzero; opacity: 1;" vector-effect="non-scaling-stroke"  transform=" translate(-7608.35, -261.99)" d="M 7552 424 C 7508 405 7487 357 7501 307 C 7512 265 7535 247 7602 224 C 7636 213 7650 203 7650 190 C 7650 162 7624 147 7587 154 C 7514 167 7515 168 7515 130 C 7515 96 7516 95 7560 88 C 7652 75 7720 116 7720 185 C 7720 223 7687 270 7659 270 C 7648 270 7623 277 7604 285 C 7574 297 7569 304 7572 326 C 7576 364 7602 378 7642 362 C 7669 352 7677 353 7692 367 C 7718 390 7714 407 7680 425 C 7644 443 7596 443 7552 424 z" stroke-linecap="round" />
</g>
		<g transform="matrix(0.13 0 0 -0.13 306.12 105.98)"  >
<path style="stroke: none; stroke-width: 1; stroke-dasharray: none; stroke-linecap: butt; stroke-dashoffset: 0; stroke-linejoin: miter; stroke-miterlimit: 4; fill: rgb(255,255,255); fill-rule: nonzero; opacity: 1;" vector-effect="non-scaling-stroke"  transform=" translate(-8284.9, -264.57)" d="M 8226 408 C 8179 369 8160 327 8160 258 C 8160 189 8190 127 8234 106 C 8320 65 8446 110 8400 165 C 8391 176 8383 176 8350 163 C 8329 154 8301 150 8288 153 C 8229 168 8208 293 8256 345 C 8282 373 8290 373 8357 354 C 8372 350 8381 354 8390 369 C 8404 396 8397 407 8353 425 C 8299 448 8269 443 8226 408 z" stroke-linecap="round" />
</g>
		<g transform="matrix(0.13 0 0 -0.13 364.71 105.74)"  >
<path style="stroke: none; stroke-width: 1; stroke-dasharray: none; stroke-linecap: butt; stroke-dashoffset: 0; stroke-linejoin: miter; stroke-miterlimit: 4; fill: rgb(255,255,255); fill-rule: nonzero; opacity: 1;" vector-effect="non-scaling-stroke"  transform=" translate(-8724.38, -266.34)" d="M 8660 418 C 8602 378 8580 336 8580 263 C 8580 193 8593 159 8635 120 C 8658 99 8671 95 8725 95 C 8779 95 8792 99 8815 120 C 8861 163 8872 196 8868 271 C 8865 320 8859 347 8844 367 C 8792 437 8718 457 8660 418 z M 8763 349 C 8778 338 8794 311 8800 289 C 8815 233 8786 165 8742 155 C 8702 147 8676 161 8656 204 C 8630 258 8638 308 8680 350 C 8705 375 8730 375 8763 349 z" stroke-linecap="round" />
</g>
		<g transform="matrix(0.13 0 0 -0.13 484.14 106.3)"  >
<path style="stroke: none; stroke-width: 1; stroke-dasharray: none; stroke-linecap: butt; stroke-dashoffset: 0; stroke-linejoin: miter; stroke-miterlimit: 4; fill: rgb(255,255,255); fill-rule: nonzero; opacity: 1;" vector-effect="non-scaling-stroke"  transform=" translate(-9620.09, -262.12)" d="M 9580 429 C 9541 413 9521 390 9514 353 C 9504 300 9526 261 9577 239 C 9602 229 9627 220 9635 220 C 9654 220 9671 195 9664 176 C 9655 154 9614 145 9573 158 C 9542 168 9538 166 9528 145 C 9522 132 9520 115 9523 107 C 9531 87 9615 78 9662 92 C 9714 107 9732 136 9728 196 C 9725 249 9720 253 9628 285 C 9575 303 9562 325 9586 351 C 9604 371 9640 374 9675 361 C 9718 343 9737 397 9698 424 C 9673 442 9618 444 9580 429 z" stroke-linecap="round" />
</g>
		<g transform="matrix(0.13 0 0 -0.13 754.8 106.45)"  >
<path style="stroke: none; stroke-width: 1; stroke-dasharray: none; stroke-linecap: butt; stroke-dashoffset: 0; stroke-linejoin: miter; stroke-miterlimit: 4; fill: rgb(255,255,255); fill-rule: nonzero; opacity: 1;" vector-effect="non-scaling-stroke"  transform=" translate(-11650, -261.01)" d="M 11593 424 C 11554 407 11540 383 11540 333 C 11540 286 11559 256 11600 241 C 11616 235 11644 225 11660 219 C 11682 211 11690 201 11690 184 C 11690 154 11655 144 11599 158 C 11555 169 11546 162 11552 119 C 11554 100 11564 94 11597 87 C 11687 70 11760 116 11760 189 C 11760 228 11731 270 11705 270 C 11678 270 11612 302 11606 317 C 11591 355 11653 382 11705 361 C 11729 351 11750 365 11750 391 C 11750 435 11661 454 11593 424 z" stroke-linecap="round" />
</g>
		<g transform="matrix(0.13 0 0 -0.13 -703.87 106.59)"  >
<path style="stroke: none; stroke-width: 1; stroke-dasharray: none; stroke-linecap: butt; stroke-dashoffset: 0; stroke-linejoin: miter; stroke-miterlimit: 4; fill: rgb(255,255,255); fill-rule: nonzero; opacity: 1;" vector-effect="non-scaling-stroke"  transform=" translate(-710, -260)" d="M 610 260 L 610 90 L 710 91 L 810 92 L 810 121 C 810 149 809 149 743 152 L 675 155 L 672 198 L 669 240 L 739 240 L 810 240 L 810 270 L 810 300 L 740 300 L 670 300 L 670 330 L 670 360 L 740 360 L 810 360 L 810 395 L 810 430 L 710 430 L 610 430 L 610 260 z" stroke-linecap="round" />
</g>
		<g transform="matrix(0.13 0 0 -0.13 -647.2 106.56)"  >
<path style="stroke: none; stroke-width: 1; stroke-dasharray: none; stroke-linecap: butt; stroke-dashoffset: 0; stroke-linejoin: miter; stroke-miterlimit: 4; fill: rgb(255,255,255); fill-rule: nonzero; opacity: 1;" vector-effect="non-scaling-stroke"  transform=" translate(-1135, -260.22)" d="M 1012 289 L 1015 148 L 1049 118 C 1080 90 1087 88 1142 92 C 1189 96 1206 102 1228 123 C 1254 150 1255 154 1258 290 L 1262 430 L 1232 430 L 1203 430 L 1198 303 C 1194 196 1190 175 1175 163 C 1148 144 1113 147 1090 170 C 1072 188 1070 203 1070 310 L 1070 430 L 1039 430 L 1008 430 L 1012 289 z" stroke-linecap="round" />
</g>
		<g transform="matrix(0.13 0 0 -0.13 -542.46 106.59)"  >
<path style="stroke: none; stroke-width: 1; stroke-dasharray: none; stroke-linecap: butt; stroke-dashoffset: 0; stroke-linejoin: miter; stroke-miterlimit: 4; fill: rgb(255,255,255); fill-rule: nonzero; opacity: 1;" vector-effect="non-scaling-stroke"  transform=" translate(-1920.6, -260)" d="M 1755 368 C 1752 333 1750 258 1752 200 L 1755 95 L 1793 92 L 1832 89 L 1829 174 C 1827 221 1830 261 1835 262 C 1840 264 1855 245 1870 220 C 1906 158 1936 155 1970 210 C 2008 272 2020 263 2020 170 C 2020 86 2021 84 2068 96 C 2090 102 2090 105 2090 266 L 2090 430 L 2056 430 C 2023 430 2019 426 1978 353 C 1954 311 1931 275 1925 273 C 1920 272 1896 305 1874 348 C 1835 420 1830 425 1797 428 L 1762 431 L 1755 368 z" stroke-linecap="round" />
</g>
		<g transform="matrix(0.13 0 0 -0.13 -475.46 106.59)"  >
<path style="stroke: none; stroke-width: 1; stroke-dasharray: none; stroke-linecap: butt; stroke-dashoffset: 0; stroke-linejoin: miter; stroke-miterlimit: 4; fill: rgb(255,255,255); fill-rule: nonzero; opacity: 1;" vector-effect="non-scaling-stroke"  transform=" translate(-2423.04, -260)" d="M 2382 418 C 2375 411 2370 399 2370 390 C 2370 373 2320 228 2295 175 C 2288 159 2280 134 2278 120 C 2276 99 2280 94 2302 92 C 2325 89 2332 95 2350 130 L 2371 171 L 2427 168 C 2480 165 2484 163 2493 135 C 2505 100 2516 90 2548 90 C 2576 90 2576 102 2544 186 C 2530 224 2510 281 2500 312 C 2469 406 2453 430 2422 430 C 2406 430 2389 425 2382 418 z M 2436 274 C 2450 253 2451 247 2440 240 C 2420 228 2400 240 2400 264 C 2400 284 2407 300 2416 300 C 2418 300 2427 288 2436 274 z" stroke-linecap="round" />
</g>
		<g transform="matrix(0.13 0 0 -0.13 -427.2 106.65)"  >
<path style="stroke: none; stroke-width: 1; stroke-dasharray: none; stroke-linecap: butt; stroke-dashoffset: 0; stroke-linejoin: miter; stroke-miterlimit: 4; fill: rgb(255,255,255); fill-rule: nonzero; opacity: 1;" vector-effect="non-scaling-stroke"  transform=" translate(-2785, -259.5)" d="M 2752 263 L 2755 95 L 2788 92 L 2820 89 L 2819 259 L 2819 430 L 2784 430 L 2750 430 L 2752 263 z" stroke-linecap="round" />
</g>
		<g transform="matrix(0.13 0 0 -0.13 -313.74 106.65)"  >
<path style="stroke: none; stroke-width: 1; stroke-dasharray: none; stroke-linecap: butt; stroke-dashoffset: 0; stroke-linejoin: miter; stroke-miterlimit: 4; fill: rgb(255,255,255); fill-rule: nonzero; opacity: 1;" vector-effect="non-scaling-stroke"  transform=" translate(-3636, -259.5)" d="M 3502 263 L 3505 95 L 3538 92 L 3570 89 L 3570 149 C 3570 183 3573 210 3576 210 C 3594 210 3623 184 3650 145 C 3683 97 3711 84 3749 98 L 3772 106 L 3740 140 C 3694 189 3688 211 3711 246 C 3735 283 3736 357 3712 386 C 3684 421 3656 430 3575 430 L 3500 430 L 3502 263 z M 3655 316 C 3655 281 3652 276 3627 269 C 3582 257 3570 267 3570 317 L 3570 361 L 3613 358 C 3655 355 3655 355 3655 316 z" stroke-linecap="round" />
</g>
		<g transform="matrix(0.13 0 0 -0.13 -220.35 106.56)"  >
<path style="stroke: none; stroke-width: 1; stroke-dasharray: none; stroke-linecap: butt; stroke-dashoffset: 0; stroke-linejoin: miter; stroke-miterlimit: 4; fill: rgb(255,255,255); fill-rule: nonzero; opacity: 1;" vector-effect="non-scaling-stroke"  transform=" translate(-4336.37, -260.2)" d="M 4300 410 C 4294 399 4280 364 4270 332 C 4260 301 4242 250 4230 220 C 4186 107 4186 108 4201 99 C 4232 80 4265 101 4276 146 C 4282 168 4287 170 4340 170 C 4396 170 4397 169 4406 138 C 4413 116 4425 102 4443 96 C 4493 78 4493 98 4445 236 C 4377 427 4376 430 4341 430 C 4321 430 4307 423 4300 410 z M 4360 266 C 4360 240 4341 227 4321 240 C 4302 251 4317 290 4341 290 C 4354 290 4360 283 4360 266 z" stroke-linecap="round" />
</g>
		<g transform="matrix(0.13 0 0 -0.13 -160.54 106.45)"  >
<path style="stroke: none; stroke-width: 1; stroke-dasharray: none; stroke-linecap: butt; stroke-dashoffset: 0; stroke-linejoin: miter; stroke-miterlimit: 4; fill: rgb(255,255,255); fill-rule: nonzero; opacity: 1;" vector-effect="non-scaling-stroke"  transform=" translate(-4785, -261)" d="M 4670 261 C 4670 90 4670 90 4693 90 C 4732 90 4742 104 4738 150 L 4735 193 L 4800 206 C 4882 223 4900 243 4900 316 C 4900 357 4895 375 4876 396 C 4855 422 4846 424 4761 428 L 4670 432 L 4670 261 z M 4824 344 C 4843 325 4844 309 4827 286 C 4814 269 4762 261 4741 274 C 4729 282 4726 319 4736 344 C 4744 365 4803 365 4824 344 z" stroke-linecap="round" />
</g>
		<g transform="matrix(0.13 0 0 -0.13 -51.87 106.59)"  >
<path style="stroke: none; stroke-width: 1; stroke-dasharray: none; stroke-linecap: butt; stroke-dashoffset: 0; stroke-linejoin: miter; stroke-miterlimit: 4; fill: rgb(255,255,255); fill-rule: nonzero; opacity: 1;" vector-effect="non-scaling-stroke"  transform=" translate(-5600, -260)" d="M 5570 260 L 5570 90 L 5600 90 L 5630 90 L 5630 260 L 5630 430 L 5600 430 L 5570 430 L 5570 260 z" stroke-linecap="round" />
</g>
		<g transform="matrix(0.13 0 0 -0.13 99.46 106.59)"  >
<path style="stroke: none; stroke-width: 1; stroke-dasharray: none; stroke-linecap: butt; stroke-dashoffset: 0; stroke-linejoin: miter; stroke-miterlimit: 4; fill: rgb(255,255,255); fill-rule: nonzero; opacity: 1;" vector-effect="non-scaling-stroke"  transform=" translate(-6735, -260)" d="M 6602 263 L 6605 95 L 6633 92 L 6660 89 L 6660 179 C 6660 229 6664 270 6668 270 C 6682 270 6704 240 6749 163 C 6790 92 6792 90 6830 90 L 6870 90 L 6870 260 L 6870 430 L 6835 430 L 6800 430 L 6800 333 C 6800 237 6800 236 6781 255 C 6770 266 6742 309 6717 350 C 6677 420 6671 425 6637 428 L 6600 431 L 6602 263 z" stroke-linecap="round" />
</g>
		<g transform="matrix(0.13 0 0 -0.13 161.14 106.69)"  >
<path style="stroke: none; stroke-width: 1; stroke-dasharray: none; stroke-linecap: butt; stroke-dashoffset: 0; stroke-linejoin: miter; stroke-miterlimit: 4; fill: rgb(255,255,255); fill-rule: nonzero; opacity: 1;" vector-effect="non-scaling-stroke"  transform=" translate(-7197.55, -259.21)" d="M 7156 406 C 7147 392 7140 376 7140 371 C 7140 366 7120 307 7095 241 C 7043 103 7041 90 7073 90 C 7105 90 7120 103 7129 136 C 7136 163 7140 165 7193 168 L 7249 171 L 7267 133 C 7279 107 7293 94 7309 92 C 7349 86 7353 103 7326 171 C 7313 206 7286 278 7267 330 C 7235 419 7230 425 7203 428 C 7180 430 7169 425 7156 406 z M 7220 266 C 7220 241 7205 229 7183 238 C 7167 243 7166 262 7182 278 C 7202 298 7220 292 7220 266 z" stroke-linecap="round" />
</g>
		<g transform="matrix(0.13 0 0 -0.13 428.13 106.65)"  >
<path style="stroke: none; stroke-width: 1; stroke-dasharray: none; stroke-linecap: butt; stroke-dashoffset: 0; stroke-linejoin: miter; stroke-miterlimit: 4; fill: rgb(255,255,255); fill-rule: nonzero; opacity: 1;" vector-effect="non-scaling-stroke"  transform=" translate(-9200, -259.5)" d="M 9062 263 L 9065 95 L 9098 92 L 9130 89 L 9130 180 C 9130 248 9133 271 9142 268 C 9149 265 9177 226 9205 179 C 9255 97 9257 95 9298 92 L 9340 89 L 9340 259 L 9340 430 L 9305 430 C 9284 430 9270 425 9269 418 C 9269 411 9269 368 9270 323 C 9271 274 9267 240 9261 240 C 9248 240 9219 282 9187 346 C 9152 415 9135 430 9094 430 L 9060 430 L 9062 263 z" stroke-linecap="round" />
</g>
		<g transform="matrix(0.13 0 0 -0.13 538.66 106.52)"  >
<path style="stroke: none; stroke-width: 1; stroke-dasharray: none; stroke-linecap: butt; stroke-dashoffset: 0; stroke-linejoin: miter; stroke-miterlimit: 4; fill: rgb(255,255,255); fill-rule: nonzero; opacity: 1;" vector-effect="non-scaling-stroke"  transform=" translate(-10029, -260.49)" d="M 9902 303 C 9906 129 9931 89 10033 90 C 10084 91 10115 107 10141 146 C 10157 171 10160 193 10160 303 L 10160 431 L 10128 428 L 10095 425 L 10099 308 C 10102 201 10100 190 10081 171 C 10060 150 10025 144 10003 158 C 9980 173 9970 223 9970 326 L 9970 430 L 9934 430 L 9898 430 L 9902 303 z" stroke-linecap="round" />
</g>
		<g transform="matrix(0.13 0 0 -0.13 596.13 106.59)"  >
<path style="stroke: none; stroke-width: 1; stroke-dasharray: none; stroke-linecap: butt; stroke-dashoffset: 0; stroke-linejoin: miter; stroke-miterlimit: 4; fill: rgb(255,255,255); fill-rule: nonzero; opacity: 1;" vector-effect="non-scaling-stroke"  transform=" translate(-10460, -260)" d="M 10370 260 L 10370 90 L 10460 90 L 10550 90 L 10550 120 C 10550 146 10547 150 10521 150 C 10505 150 10478 153 10461 156 L 10430 163 L 10430 296 L 10430 430 L 10400 430 L 10370 430 L 10370 260 z" stroke-linecap="round" />
</g>
		<g transform="matrix(0.13 0 0 -0.13 644.13 106.65)"  >
<path style="stroke: none; stroke-width: 1; stroke-dasharray: none; stroke-linecap: butt; stroke-dashoffset: 0; stroke-linejoin: miter; stroke-miterlimit: 4; fill: rgb(255,255,255); fill-rule: nonzero; opacity: 1;" vector-effect="non-scaling-stroke"  transform=" translate(-10820, -259.5)" d="M 10700 396 C 10700 362 10701 361 10743 358 L 10785 355 L 10788 222 L 10791 89 L 10823 92 L 10855 95 L 10855 225 L 10855 355 L 10898 358 C 10939 361 10940 362 10940 396 L 10940 430 L 10820 430 L 10700 430 L 10700 396 z" stroke-linecap="round" />
</g>
		<g transform="matrix(0.13 0 0 -0.13 699.92 106.59)"  >
<path style="stroke: none; stroke-width: 1; stroke-dasharray: none; stroke-linecap: butt; stroke-dashoffset: 0; stroke-linejoin: miter; stroke-miterlimit: 4; fill: rgb(255,255,255); fill-rule: nonzero; opacity: 1;" vector-effect="non-scaling-stroke"  transform=" translate(-11238.43, -260)" d="M 11177 353 C 11163 310 11137 237 11120 191 C 11104 145 11090 104 11090 99 C 11090 94 11103 90 11120 90 C 11145 90 11153 96 11167 127 C 11184 162 11188 165 11233 168 C 11288 172 11307 160 11312 122 C 11315 99 11320 95 11354 92 C 11401 88 11402 75 11328 282 L 11275 430 L 11239 430 C 11204 430 11204 430 11177 353 z M 11258 276 C 11264 249 11252 230 11235 236 C 11220 242 11214 281 11227 294 C 11238 304 11255 295 11258 276 z" stroke-linecap="round" />
</g>
</g>
</g>
</svg>